Coordinates
version=1
nRows=6
nColumns=63
inDegrees=yes

Units are S.I. units (second, meters, Newtons, ...)
If the header above contains a line with 'inDegrees', this indicates whether rotational values are in degrees (yes) or radians (no).

endheader
time	pelvis_tilt	pelvis_list	pelvis_rotation	pelvis_tx	pelvis_ty	pelvis_tz	hip_flexion_r	hip_adduction_r	hip_rotation_r	knee_angle_r	knee_angle_r_beta	ankle_angle_r	subtalar_angle_r	mtp_angle_r	hip_flexion_l	hip_adduction_l	hip_rotation_l	knee_angle_l	knee_angle_l_beta	ankle_angle_l	subtalar_angle_l	mtp_angle_l	L5_S1_Flex_Ext	L5_S1_Lat_Bending	L5_S1_axial_rotation	L4_L5_Flex_Ext	L4_L5_Lat_Bending	L4_L5_axial_rotation	L3_L4_Flex_Ext	L3_L4_Lat_Bending	L3_L4_axial_rotation	L2_L3_Flex_Ext	L2_L3_Lat_Bending	L2_L3_axial_rotation	L1_L2_Flex_Ext	L1_L2_Lat_Bending	L1_L2_axial_rotation	L1_T12_Flex_Ext	L1_T12_Lat_Bending	L1_T12_axial_rotation	Abs_r3	Abs_r2	Abs_r1	Abs_t1	Abs_t2	neck_flexion	neck_bending	neck_rotation	arm_flex_r	arm_add_r	arm_rot_r	elbow_flex_r	pro_sup_r	wrist_flex_r	wrist_dev_r	arm_flex_l	arm_add_l	arm_rot_l	elbow_flex_l	pro_sup_l	wrist_flex_l	wrist_dev_l
      3.61016949	      1.94674428	     10.82188144	    101.32919978	      0.22447501	      0.79709037	      0.67934444	     -5.15935350	      4.75797817	     10.41057523	     16.89607578	      0.29489215	     24.62116352	    -16.55278179	      0.00000000	     -7.04056769	     -3.47101546	     -8.35329125	     13.43574407	      0.23449797	     37.13414450	     17.38430121	      0.00000000	      0.22536836	      0.90734637	     -0.37430622	      0.41853157	      1.20677068	     -0.39770035	      0.37025767	      2.20612198	     -0.39770035	      0.25757349	      2.20612198	     -0.32751794	      0.20927706	      1.85026073	     -0.30412380	      0.12877548	      1.40547953	     -0.28072966	      1.60978363	     10.26408366	     -2.08177888	      0.00000000	      0.00000000	     20.58552088	     -1.15811809	      4.61139758	     13.95113666	     -8.62287897	    168.55936257	      0.43928444	      0.99417220	      9.13846075	    -24.22638275	      1.32603186	    -15.64058368	     52.23777784	     37.08300376	     87.55263454	     -8.28872609	     -4.05781584
      3.62711864	      1.92797864	     10.90538886	    101.22526420	      0.22521774	      0.79743500	      0.68104525	     -5.06868521	      4.73779014	     10.39304996	     17.03974490	      0.29739965	     24.36668680	    -16.53119113	      0.00000000	     -6.95678458	     -3.46794421	     -8.28703616	     13.65173007	      0.23826764	     36.92961297	     17.40890825	      0.00000000	      0.18293305	      0.88654312	     -0.40023365	      0.33972497	      1.17910235	     -0.42524825	      0.30054071	      2.15554094	     -0.42524825	      0.20907419	      2.15554094	     -0.35020444	      0.16987163	      1.80783873	     -0.32518984	      0.10452795	      1.37325529	     -0.30017523	      1.30667250	     10.02875307	     -2.22597947	      0.00000000	      0.00000000	     19.74501201	     -0.91805652	      4.86589258	     14.50201693	     -8.25776817	    168.86066226	      0.37712380	      1.03641643	      8.85342011	    -24.30301245	      1.16189697	    -16.03144840	     51.91141587	     37.50359300	     87.45027561	     -8.18236871	     -4.19552883
      3.64406780	      1.79337931	     10.74407053	    101.43351813	      0.22599671	      0.79723529	      0.68258660	     -4.72531957	      4.64406849	     10.29390484	     17.25283236	      0.30111873	     24.53205183	    -16.90449111	      0.00000000	     -6.58915131	     -3.36619171	     -7.99993337	     13.85473345	      0.24181072	     36.78616696	     17.44313925	      0.00000000	      0.15837934	      0.84743649	     -0.58219497	      0.29412626	      1.12709053	     -0.61858216	      0.26020141	      2.06045707	     -0.61858216	      0.18101174	      2.06045707	     -0.50942060	      0.14707105	      1.72809248	     -0.47303342	      0.09049795	      1.31267912	     -0.43664623	      1.13128776	      9.58637103	     -3.23799379	      0.00000000	      0.00000000	     18.97231035	      0.85574864	      7.48322332	     15.19781204	     -7.63770804	    172.31471931	      0.31703312	      0.98895465	      6.45385560	    -24.35414932	     -0.11421499	    -16.45610783	     48.72823057	     38.40010763	     87.52628424	     -6.47311979	     -3.53221068
      3.66101695	      1.74316789	     10.63400997	    101.44876061	      0.22686315	      0.79714040	      0.68423842	     -4.32015095	      4.61178619	     10.24945509	     17.58951382	      0.30699493	     24.74242266	    -17.12181265	      0.00000000	     -6.29971419	     -3.33785565	     -7.90973887	     14.04315101	      0.24509922	     36.61388438	     17.44687646	      0.00000000	      0.12111167	      0.81851674	     -0.65236513	      0.22491649	      1.08862727	     -0.69313795	      0.19897437	      1.99014160	     -0.69313795	      0.13841853	      1.99014160	     -0.57081948	      0.11246430	      1.66911934	     -0.53004666	      0.06920321	      1.26788243	     -0.48927384	      0.86508856	      9.25922508	     -3.62825912	      0.00000000	      0.00000000	     18.38047105	      1.85536390	      8.98128305	     15.65608552	     -7.26030945	    173.86769017	      0.28850958	      1.02340751	      5.45005917	    -24.38922366	     -0.65400530	    -16.88484732	     47.55310540	     38.92779789	     87.13467275	     -5.15385710	     -3.10658281
      3.67796610	      1.70353052	     10.49491536	    101.55526410	      0.22738540	      0.79692038	      0.68592257	     -3.86330084	      4.58051080	     10.12612329	     17.94117923	      0.31313265	     25.18415980	    -17.28242901	      0.00000000	     -5.92834684	     -3.33272368	     -7.84220994	     14.30977638	      0.24975271	     36.42632012	     17.44841441	      0.00000000	      0.08182699	      0.79073218	     -0.70948735	      0.15196091	      1.05167380	     -0.75383031	      0.13443357	      1.92258622	     -0.75383031	      0.09352007	      1.92258622	     -0.62080143	      0.07598455	      1.61246106	     -0.57645847	      0.04675594	      1.22484414	     -0.53211551	      0.58448203	      8.94492055	     -3.94595578	      0.00000000	      0.00000000	     18.13326399	      2.57577772	     10.09803473	     16.04984480	     -6.99885548	    175.27943237	      0.27015869	      1.08990935	      4.67898826	    -24.41527805	     -1.00707177	    -17.29192914	     46.78835734	     39.38913968	     86.83043049	     -4.05841238	     -2.81274667
      3.69491525	      1.75083259	     10.34034115	    101.75970661	      0.22768919	      0.79667500	      0.68751934	     -3.39762577	      4.62171034	      9.79430529	     18.21410232	      0.31789606	     25.63093750	    -17.35922630	      0.00000000	     -5.50577644	     -3.43899600	     -7.77504251	     14.58929950	      0.25463131	     36.24981443	     17.42636852	      0.00000000	      0.04565643	      0.77642818	     -0.76610289	      0.08478855	      1.03264948	     -0.81398433	      0.07500895	      1.88780748	     -0.81398433	      0.05218073	      1.88780748	     -0.67034003	      0.04239656	      1.58329235	     -0.62245860	      0.02608808	      1.20268725	     -0.57457717	      0.32611931	      8.78311087	     -4.26083447	      0.00000000	      0.00000000	     18.16728786	      2.83065469	     11.15169557	     16.35168445	     -6.85547968	    176.63675495	      0.25156252	      1.11157183	      3.98955877	    -24.43718745	     -1.21640315	    -17.60036510	     46.11805292	     39.76337738	     86.86035433	     -3.11329485	     -2.53347872
